<svg id="Component_1_1" data-name="Component 1 – 1" xmlns="http://www.w3.org/2000/svg" width="603.951" height="552.679" viewBox="0 0 603.951 552.679">
  <g id="undraw_visual_data_re_mxxo" transform="translate(75)">
    <path id="Path_1495" data-name="Path 1495" d="M368.748,617.127V406.961a4.88,4.88,0,0,1,4.88-4.88h21.78a4.88,4.88,0,0,1,4.88,4.88h0V617.675Z" transform="translate(-269.515 -238.3)" fill="#fff"/>
    <path id="Path_1496" data-name="Path 1496" d="M498.748,653.071V485.96a4.881,4.881,0,0,1,4.881-4.88h21.78a4.88,4.88,0,0,1,4.88,4.88h0V652.711Z" transform="translate(-327.58 -273.586)" fill="#fff"/>
    <path id="Path_57" data-name="Path 57" d="M266.407,297.512a1.66,1.66,0,0,1-1.236-2.768L338,213.518l71.669,40.245,72.095-124.225,73.444,60.45a1.66,1.66,0,1,1-2.11,2.564l-70.426-57.966L410.892,258.26l-72.2-40.544L267.644,296.96A1.655,1.655,0,0,1,266.407,297.512Z" transform="translate(-223.063 -116.568)" fill="#3f3d56"/>
    <circle id="Ellipse_300" data-name="Ellipse 300" cx="15.494" cy="15.494" r="15.494" transform="translate(27.574 163.791)" fill="#b71c1c"/>
    <circle id="Ellipse_301" data-name="Ellipse 301" cx="15.494" cy="15.494" r="15.494" transform="translate(99.509 83.555)" fill="#ccc"/>
    <circle id="Ellipse_302" data-name="Ellipse 302" cx="15.494" cy="15.494" r="15.494" transform="translate(171.444 123.95)" fill="#e6e6e6"/>
    <circle id="Ellipse_303" data-name="Ellipse 303" cx="15.494" cy="15.494" r="15.494" transform="translate(243.379)" fill="#b71c1c"/>
    <path id="Path_1513" data-name="Path 1513" d="M758.748,590.489V348.259c0-3.107,2.185-5.625,4.881-5.625h21.78c2.7,0,4.88,2.518,4.88,5.625V591.123Z" transform="translate(-443.71 -211.748)" fill="#fff"/>
    <path id="Path_1514" data-name="Path 1514" d="M238.747,694.56V577.616c0-1.5,2.185-2.716,4.88-2.716h21.78c2.7,0,4.88,1.217,4.88,2.716v117.25Z" transform="translate(-211.45 -315.491)" fill="#ccc"/>
    <path id="Path_944" data-name="Path 944" d="M643.254,793.008H189.969a.553.553,0,1,1,0-1.107H643.253a.553.553,0,0,1,0,1.107Z" transform="translate(-189.416 -412.415)" fill="#e6e6e6"/>
    <path id="Path_1515" data-name="Path 1515" d="M628.747,563.368V288.482c0-3.525,2.185-6.383,4.88-6.383h21.78c2.7,0,4.881,2.858,4.881,6.383v275.6Z" transform="translate(-385.645 -184.71)" fill="#ccc"/>
    <circle id="Ellipse_27" data-name="Ellipse 27" cx="4.98" cy="4.98" r="4.98" transform="translate(342.069 141.859)" fill="#a0616a"/>
  </g>
  <g id="undraw_personal_training_0dqn_1_" data-name="undraw_personal_training_0dqn (1)" transform="translate(0 125.53)">
    <rect id="Rectangle_10" data-name="Rectangle 10" width="5.344" height="46.093" transform="matrix(0.543, -0.84, 0.84, 0.543, 318.679, 192.89)" fill="#2f2e41"/>
    <ellipse id="Ellipse_14" data-name="Ellipse 14" cx="16.032" cy="4.008" rx="16.032" ry="4.008" transform="matrix(0.543, -0.84, 0.84, 0.543, 346.781, 226.947)" fill="#2f2e41"/>
    <ellipse id="Ellipse_15" data-name="Ellipse 15" cx="16.032" cy="4.008" rx="16.032" ry="4.008" transform="matrix(0.543, -0.84, 0.84, 0.543, 308.063, 201.938)" fill="#2f2e41"/>
    <ellipse id="Ellipse_16" data-name="Ellipse 16" cx="154.262" cy="11.766" rx="154.262" ry="11.766" transform="translate(295.427 403.618)" fill="#e6e6e6"/>
    <ellipse id="Ellipse_17" data-name="Ellipse 17" cx="154.262" cy="11.766" rx="154.262" ry="11.766" transform="translate(0 347.225)" fill="#e6e6e6"/>
    <path id="Path_27" data-name="Path 27" d="M980.517,587.261a201.348,201.348,0,0,1-9.406,55.66c-.131.418-.268.83-.406,1.248h-35.1c.037-.374.075-.793.112-1.248,2.341-26.906,15.834-190.665-.3-218.67C936.828,426.523,983.239,501.768,980.517,587.261Z" transform="translate(-403.935 -228.295)" fill="#e6e6e6"/>
    <path id="Path_28" data-name="Path 28" d="M984.908,689.017c-.293.418-.6.836-.911,1.248H957.665c.2-.356.431-.774.7-1.248,4.35-7.852,17.226-31.325,29.178-55.66,12.845-26.151,24.628-53.294,23.636-63.118C1011.484,572.455,1020.371,640,984.908,689.017Z" transform="translate(-410.959 -274.392)" fill="#e6e6e6"/>
    <path id="Path_29" data-name="Path 29" d="M637.813,665.256a102.2,102.2,0,0,0,4.774,28.252c.066.212.136.421.206.634H660.61c-.019-.19-.038-.4-.057-.634-1.188-13.657-8.037-96.779.152-110.993C659.989,583.668,636.432,621.861,637.813,665.256Z" transform="translate(-309.946 -278.268)" fill="#e6e6e6"/>
    <path id="Path_30" data-name="Path 30" d="M633.358,716.906c.149.212.3.424.463.634h13.366c-.1-.181-.219-.393-.355-.634-2.208-3.985-8.744-15.9-14.81-28.252-6.52-13.274-12.5-27.051-12-32.038C619.869,657.741,615.357,692.025,633.358,716.906Z" transform="translate(-304.154 -301.666)" fill="#e6e6e6"/>
    <path id="Path_31" data-name="Path 31" d="M661.692,399.807s-29.765,29.17-17.264,32.742,26.789-26.789,26.789-26.789Z" transform="translate(-311.085 -220.577)" fill="#a0616a"/>
    <path id="Path_32" data-name="Path 32" d="M554.254,405.493l-3.572,16.669,26.789,1.191L573.3,405.493Z" transform="translate(-173.881 -128.037)" fill="#a0616a"/>
    <path id="Path_33" data-name="Path 33" d="M677.8,556.007l-3.572,16.669,26.789,1.191-4.168-17.859Z" transform="translate(-212.891 -175.563)" fill="#a0616a"/>
    <path id="Path_34" data-name="Path 34" d="M741.576,380.667l2.381,9.525s-66.079-13.1-62.507,20.241,19.05,65.484,19.05,65.484-1.19,10.716,1.191,12.5,0,7.739,0,7.739,22.026,2.977,22.622-2.381a37.337,37.337,0,0,0-.6-10.716s1.191,0,0-5.953-6-53.963-9.572-60.512c0,0,31.6,24.2,48.267,21.221,0,0-2.381,23.812,7.144,55.364S779.08,528.3,779.08,528.3s11.311,60.126,8.334,67.27l-.6,2.977h22.026s-1.786-31.551,0-35.719,1.786-39.886-8.334-57.745c-7.167-12.647-5.832-49.318-1.912-63.813,3.292-12.172,4.123-21.54,2.194-34-2.064-13.326-8.226-20.291-15.76-26.605Z" transform="translate(-323.699 -214.533)" fill="#2f2e41"/>
    <circle id="Ellipse_18" data-name="Ellipse 18" cx="21.431" cy="21.431" r="21.431" transform="translate(414.008 33.678)" fill="#a0616a"/>
    <path id="Path_35" data-name="Path 35" d="M786.787,236.472s6.548,19.05,5.953,22.622,19.05-7.144,19.05-7.144-7.739-19.05-5.358-24.408Z" transform="translate(-357.004 -166.183)" fill="#a0616a"/>
    <path id="Path_36" data-name="Path 36" d="M800.6,253.643l-20.836,8.334,1.191,7.144s-1.786,2.381-1.191,3.572-7.739,5.953-6.548,7.739-7.144,8.93-6.548,10.716-19.05,12.5-8.334,33.337c0,0,5.556,7.222,4.86,15.763q-.037.45-.1.905c-1.191,8.93,45.243-1.191,45.243-1.191v-10.12s4.167-1.786,3.572-9.525-4.167-4.167,0-8.334,4.167-3.572,3.572-7.144c-.238-1.426-.286-6.555-.257-12.2A54.17,54.17,0,0,0,804.177,259.6h0Z" transform="translate(-347.009 -174.425)" fill="#b71c1c"/>
    <path id="Path_37" data-name="Path 37" d="M761.1,275.1l-38.7,40.481-56.554,44.648,12.5,10.12L782.534,300.7S791.464,262.6,761.1,275.1Z" transform="translate(-318.818 -180.405)" fill="#b71c1c"/>
    <path id="Path_38" data-name="Path 38" d="M696.538,553.99s-4.167-7.144-7.144-4.762L668.559,565.9s-36.909,10.716-1.191,19.05c0,0,19.645,2.977,23.812,0s10.716-2.381,12.5-1.19,24.408-.6,24.408-5.358-12.477-25.577-12.477-25.577S708.444,561.133,696.538,553.99Z" transform="translate(-314.379 -267.604)" fill="#2f2e41"/>
    <path id="Path_39" data-name="Path 39" d="M820.082,704.5s-4.167-7.144-7.144-4.762L792.1,716.41s-36.909,10.716-1.191,19.05c0,0,19.645,2.977,23.812,0s10.715-2.381,12.5-1.191,24.408-.6,24.408-5.358-12.477-25.577-12.477-25.577S831.988,711.648,820.082,704.5Z" transform="translate(-353.389 -315.129)" fill="#2f2e41"/>
    <path id="Path_40" data-name="Path 40" d="M757.517,194.714s3.624-31.853,34.615-22.809c0,0,21.925-4.46,29.668,22.923l7.86,28.709-3.6-1.87-1.59,3.66L818.73,226.9l-2.563-4.853-1.08,5.974-39.652,8.017a61.608,61.608,0,0,0,13.315-37.763l-3.95,4.338Z" transform="translate(-347.761 -148.105)" fill="#2f2e41"/>
    <rect id="Rectangle_11" data-name="Rectangle 11" width="49.571" height="61.816" transform="translate(147.232 20.709)" fill="#2f2e41"/>
    <path id="Path_41" data-name="Path 41" d="M152.232,451.681l-6.76,24.877,11.267,8.292,3-2.261L165,456.958Z" transform="translate(-45.934 -142.621)" fill="#ffb8b8"/>
    <path id="Path_42" data-name="Path 42" d="M278.349,448.376,276.1,478.53h14.271V450.637Z" transform="translate(-87.179 -141.577)" fill="#ffb8b8"/>
    <path id="Path_43" data-name="Path 43" d="M213.528,169.635v18.093l27.791,4.523,24.034-9.8-4.506-11.309Z" transform="translate(-67.423 -53.563)" fill="#ffb8b8"/>
    <path id="Path_44" data-name="Path 44" d="M375.2,324.816l-24.035-4.523-6.009,49-15.022,61.063S307.6,482.372,310.6,494.434l1.5,3.769-1.5,6.785,15.022,6.031,6.009-9.8s4.506,6.785,12.017-7.539S382.708,390.4,382.708,390.4l5.258,15.077a31.181,31.181,0,0,0-.751,14.323c1.5,7.539,3,30.908,3,30.908s-8.262,40.708,3,43.724l2.253,9.046,15.773,1.508,3-9.046s15.022-5.277,11.266-31.662S420.262,351.2,420.262,351.2l-14.8-36.618Z" transform="translate(-206.559 -193.667)" fill="#2f2e41"/>
    <path id="Path_45" data-name="Path 45" d="M296.233,622.6s-3.755-3.016-5.258-2.262S273.7,641.45,273.7,641.45s-16.524,12.816-4.507,14.323,45.065-15.077,45.065-18.846-6.944-13.209-6.944-13.209S302.241,627.88,296.233,622.6Z" transform="translate(-192.188 -290.174)" fill="#2f2e41"/>
    <path id="Path_46" data-name="Path 46" d="M431.38,620.328s13.519-.843,15.773,1.463,1.5,13.614,1.5,13.614,1.5,20.354-10.515,20.354-9.013-13.569-9.013-13.569Z" transform="translate(-243.965 -290.16)" fill="#2f2e41"/>
    <ellipse id="Ellipse_19" data-name="Ellipse 19" cx="18.777" cy="18.846" rx="18.777" ry="18.846" transform="translate(155.119 12.039)" fill="#ffb8b8"/>
    <path id="Path_47" data-name="Path 47" d="M386.812,200.083S397.327,212.9,376.3,222.7s15.022,50.509,15.022,50.509,42.06-15.831,38.305-46.739c0,0-25.537-4.523-19.528-25.631Z" transform="translate(-225.309 -157.513)" fill="#ffb8b8"/>
    <path id="Path_48" data-name="Path 48" d="M367.7,231.974s-17.275-2.262-18.026,12.062,0,49,0,49-7.511,30.154-3.755,56.539c0,0-4.506,30.908,7.511,29.4s3-31.662,3-31.662l5.258-49-2.253-36.185,9.764-21.862Z" transform="translate(-217.465 -167.541)" fill="#ffb8b8"/>
    <path id="Path_49" data-name="Path 49" d="M448.4,236.9s16.379-.315,17.13,11.747-5.258,49-5.258,49l-9.013,4.523L443,276.54Z" transform="translate(-248.451 -169.138)" fill="#ffb8b8"/>
    <path id="Path_50" data-name="Path 50" d="M451.54,326.413l-1.5,3.769,4.506,11.308s-18.026,14.323-16.524,17.339,9.764-3.769,9.764-3.769l12.017,6.031s9.764-10.554,5.258-20.354a113.968,113.968,0,0,1-6.247-16.309S452.291,324.152,451.54,326.413Z" transform="translate(-246.851 -196.772)" fill="#ffb8b8"/>
    <path id="Path_51" data-name="Path 51" d="M370.294,228.178l-2.253,24.877s-10.515,10.554,1.5,24.877l-1.5,11.308s27.79-1.508,33.048,0,21.494-1.214,21.494-1.214l.287-8.586s7.511-10.554,5.258-26.385,0-21.108,0-21.108l-5.258-.754s-3.38,22.993-26.663,25.254c0,0-28.917,2.638-20.655-28.27Z" transform="translate(-223.437 -166.384)" fill="#e6e6e6"/>
    <path id="Path_52" data-name="Path 52" d="M390.844,138.222s-19.528-1.215-24.035,10.973a46.094,46.094,0,0,1-12.393,18.587,20.046,20.046,0,0,0-6.211,24.14s-19.325,13.035-6.557,24.614c0,0-.751,11.579,6.76,19.5,0,0,6.009,3.047,3.755,4.875s15.022.609,13.519-15.845,8.637-28.045,8.637-28.045-9.764-21.334-5.258-28.647c2.736-4.44,3.911-7.751,6.182-9.667a28.541,28.541,0,0,0,3.506-3.435,8.073,8.073,0,0,1,8.713-2.727,11.5,11.5,0,0,1,8.262,7.313s4.882,13.1,13.144,19.2-6.384,16.759-6.384,16.759,2.546,12.556,9.159,19.99-1.906,13.914-2.4,14.747c-1.127,1.9-5.626,13.91,12.96,13.963,0,0,4.315-9.088,10.324-14.573s1.5-21.33,1.5-21.33,9.013-5.485-.751-18.892c0,0,3-12.188-5.258-20.111C428.023,169.611,416.381,133.956,390.844,138.222Z" transform="translate(-215.071 -137.868)" fill="#2f2e41"/>
    <ellipse id="Ellipse_20" data-name="Ellipse 20" cx="1.878" cy="3.015" rx="1.878" ry="3.015" transform="translate(151.739 27.493)" fill="#ffb8b8"/>
    <rect id="Rectangle_12" data-name="Rectangle 12" width="46.093" height="5.344" transform="translate(17.839 341.462)" fill="#2f2e41"/>
    <ellipse id="Ellipse_21" data-name="Ellipse 21" cx="4.008" cy="16.032" rx="4.008" ry="16.032" transform="translate(59.923 328.102)" fill="#2f2e41"/>
    <ellipse id="Ellipse_22" data-name="Ellipse 22" cx="4.008" cy="16.032" rx="4.008" ry="16.032" transform="translate(13.831 328.102)" fill="#2f2e41"/>
    <rect id="Rectangle_13" data-name="Rectangle 13" width="46.093" height="5.344" transform="translate(6.897 341.462)" fill="#2f2e41"/>
    <ellipse id="Ellipse_23" data-name="Ellipse 23" cx="4.008" cy="16.032" rx="4.008" ry="16.032" transform="translate(48.981 328.102)" fill="#2f2e41"/>
    <ellipse id="Ellipse_24" data-name="Ellipse 24" cx="4.008" cy="16.032" rx="4.008" ry="16.032" transform="translate(2.889 328.102)" fill="#2f2e41"/>
    <rect id="Rectangle_14" data-name="Rectangle 14" width="46.093" height="5.344" transform="translate(531.259 395.329)" fill="#2f2e41"/>
    <ellipse id="Ellipse_25" data-name="Ellipse 25" cx="4.008" cy="16.032" rx="4.008" ry="16.032" transform="translate(573.344 381.969)" fill="#2f2e41"/>
    <ellipse id="Ellipse_26" data-name="Ellipse 26" cx="4.008" cy="16.032" rx="4.008" ry="16.032" transform="translate(527.251 381.969)" fill="#2f2e41"/>
  </g>
</svg>
